<?xml version="1.0" encoding="UTF-8"?>
<svg width="16px" height="20px" viewBox="0 0 16 20" version="1.1" xmlns="http://www.w3.org/2000/svg" xmlns:xlink="http://www.w3.org/1999/xlink">
    <!-- Generator: Sketch 55.2 (78181) - https://sketchapp.com -->
    <title>Group 5</title>
    <desc>Created with Sketch.</desc>
    <g id="Symbols" stroke="none" stroke-width="1" fill="none" fill-rule="evenodd">
        <g id="Widget" transform="translate(-22.000000, -291.000000)" fill="#FEFEFE">
            <g transform="translate(-1.000000, 0.000000)" id="Group-5">
                <g transform="translate(23.000000, 291.000000)">
                    <path d="M9.24343037,12.2270036 C9.24343037,11.8820888 9.1509048,11.6077247 8.9667978,11.4039113 C8.78221873,11.1996081 8.46923682,11.0114727 8.02738002,10.8390152 C7.58552321,10.6665578 7.20503541,10.4950802 6.88450039,10.3250725 C6.56443745,10.1545748 6.28969315,9.95909035 6.06073958,9.73812926 C5.831786,9.51716817 5.65381589,9.25750214 5.52588513,8.95913118 C5.39842644,8.66027028 5.33469709,8.30506675 5.33469709,7.89254073 C5.33469709,7.18213367 5.55326515,6.59910995 5.99087333,6.14493937 C6.42895358,5.69076879 7.01054288,5.42571347 7.73564123,5.35026334 L7.73564123,4 L8.70857592,4 L8.70857592,5.3688809 C9.4256491,5.47421712 9.98693942,5.78434655 10.3924469,6.29975911 C10.7974823,6.81517168 11,7.48246438 11,8.30261707 L9.24343037,8.30261707 C9.24343037,7.7979831 9.14287962,7.42073245 8.9422502,7.17037521 C8.74209284,6.92001796 8.47348544,6.79508431 8.13690008,6.79508431 C7.80456334,6.79508431 7.5472856,6.89258155 7.36506688,7.08806598 C7.18237608,7.28404034 7.09126672,7.55399502 7.09126672,7.89890989 C7.09126672,8.21883804 7.1804878,8.47556445 7.35892998,8.66859919 C7.53690008,8.86212387 7.86829268,9.06005798 8.35263572,9.26191157 C8.83697876,9.46376516 9.23493312,9.65386029 9.54744296,9.83268689 C9.85948072,10.0115135 10.1228954,10.2133671 10.3376869,10.4382477 C10.5520063,10.6636182 10.7162864,10.9203446 10.8300551,11.207937 C10.9433517,11.4965092 11,11.8316254 11,12.2142653 C11,12.9295717 10.7852085,13.5101458 10.3556255,13.9559874 C9.92604249,14.4013392 9.33453973,14.6644347 8.58064516,14.7442943 L8.58064516,16 L7.61431943,16 L7.61431943,14.7506635 C6.78347758,14.6580656 6.14004721,14.3523456 5.68402832,13.8325236 C5.22800944,13.3131915 5,12.6223819 5,11.7600947 L6.7570417,11.7600947 C6.7570417,12.2608092 6.87175452,12.644429 7.10023603,12.9114441 C7.32918961,13.1789491 7.65869394,13.3122117 8.08827695,13.3122117 C8.44516129,13.3122117 8.72651456,13.2142245 8.93328088,13.01874 C9.14004721,12.8232556 9.24343037,12.5591802 9.24343037,12.2270036" id="Fill-1"></path>
                    <path d="M0,20 L16,20 L16,0 L0,0 L0,20 Z M2,18 L14,18 L14,2 L2,2 L2,18 Z" id="Fill-3"></path>
                </g>
            </g>
        </g>
    </g>
</svg>