<?xml version="1.0" encoding="UTF-8"?>
<svg width="17px" height="14px" viewBox="0 0 17 14" version="1.1" xmlns="http://www.w3.org/2000/svg" xmlns:xlink="http://www.w3.org/1999/xlink">
    <!-- Generator: Sketch 55.2 (78181) - https://sketchapp.com -->
    <title>”</title>
    <desc>Created with Sketch.</desc>
    <g id="Page-1" stroke="none" stroke-width="1" fill="none" fill-rule="evenodd">
        <g id="Pains/needs-page-Copy" transform="translate(-1090.000000, -3098.000000)" fill="#C20430" fill-rule="nonzero">
            <g id="Testimonial" transform="translate(0.000000, 2913.000000)">
                <g id="Group-2" transform="translate(542.000000, 71.000000)">
                    <path d="M551.463623,127.458885 L548.209717,125.568748 C549.581468,123.415417 550.29126,121.190342 550.339111,118.893456 L550.339111,114.849998 L555.842041,114.849998 L555.842041,118.558495 C555.842041,119.994049 555.443282,121.549209 554.645752,123.224022 C553.848222,124.898835 552.787523,126.310442 551.463623,127.458885 Z M559.765869,127.458885 L556.511963,125.568748 C557.883715,123.415417 558.593506,121.190342 558.641357,118.893456 L558.641357,114.849998 L564.144287,114.849998 L564.144287,118.558495 C564.144287,119.994049 563.745528,121.549209 562.947998,123.224022 C562.150468,124.898835 561.089769,126.310442 559.765869,127.458885 Z" id="”"></path>
                </g>
            </g>
        </g>
    </g>
</svg>