<svg xmlns="http://www.w3.org/2000/svg" viewBox="0 0 25 21.87"><defs><style>.cls-1,.cls-2{fill:none;stroke:#fff;stroke-linejoin:round;}.cls-2{stroke-linecap:round;}</style></defs><title>enterprise-site-icon-events-webinars-white</title><g id="Layer_2" data-name="Layer 2"><g id="Layer_1-2" data-name="Layer 1"><g id="Whitepaper"><path class="cls-1" d="M14.85,11.5a.43.43,0,0,1-.43.43h-6A.42.42,0,0,1,8,11.5V8.09a.42.42,0,0,1,.42-.43h6a.43.43,0,0,1,.43.43Z"/><line class="cls-2" x1="9.29" y1="8.94" x2="13.57" y2="8.94"/><circle class="cls-2" cx="9.29" cy="5.1" r="1.71"/><circle class="cls-2" cx="12.93" cy="5.74" r="1.07"/><path class="cls-2" d="M14.85,10.43l2.17.91a.26.26,0,0,0,.39-.26V8.51A.26.26,0,0,0,17,8.25l-2.17.91"/></g><g id="Colour"><path class="cls-2" d="M24.5,17.62a1.61,1.61,0,0,1-1.56,1.66H2.06A1.61,1.61,0,0,1,.5,17.62V2.16A1.61,1.61,0,0,1,2.06.5H22.94A1.61,1.61,0,0,1,24.5,2.16Z"/><line class="cls-2" x1="5.19" y1="21.37" x2="19.81" y2="21.37"/><line class="cls-2" x1="12.5" y1="19.29" x2="12.5" y2="21.37"/><circle class="cls-1" cx="12.5" cy="17.19" r="0.52"/><line class="cls-1" x1="0.5" y1="15.11" x2="24.5" y2="15.11"/></g></g></g></svg>