<?xml version="1.0" encoding="UTF-8"?>
<svg width="18px" height="19px" viewBox="0 0 18 19" version="1.1" xmlns="http://www.w3.org/2000/svg" xmlns:xlink="http://www.w3.org/1999/xlink">
    <!-- Generator: Sketch 55.2 (78181) - https://sketchapp.com -->
    <title>Path</title>
    <desc>Created with Sketch.</desc>
    <g id="Page-1" stroke="none" stroke-width="1" fill="none" fill-rule="evenodd">
        <g id="HP-Copy-5" transform="translate(-1345.000000, -17.000000)" fill="#FFFFFF">
            <g id="Nav">
                <g id="Top-bar">
                    <g id="Group-3" transform="translate(1345.000000, 17.164062)">
                        <path d="M7.62545819,12.4860577 C5.06195707,12.4860577 2.9838785,10.3812365 2.9838785,7.78484718 C2.9838785,5.18845785 5.0620381,3.08371876 7.62545819,3.08371876 C10.1846643,3.08371876 12.26096,5.18156325 12.2671327,7.77352035 C12.2732779,10.3655595 10.2069499,12.4735817 7.64774387,12.4860577 L7.62545819,12.4860577 Z M14.3888774,11.4375048 C14.9947237,10.3050677 15.3080198,9.03588774 15.2995917,7.74799393 C15.2995917,3.43222409 11.8155706,-0.0594775674 7.54085366,0.000768054809 C3.42067776,0.0588796359 0.0580527921,3.46456302 0.000758343435,7.63759834 C-0.0587241535,11.9672395 3.38866743,15.4958764 7.64976984,15.4958764 C9.03237322,15.4969435 10.3888821,15.1141293 11.5718058,14.3890478 L14.7458534,17.6038987 C15.2666089,18.1312531 16.1105472,18.1321559 16.6323562,17.6058685 L17.6068481,16.6230605 C18.1297106,16.0957061 18.1312503,15.2388886 17.6102517,14.7097285 L14.3888774,11.4375048 Z" id="Fill-1"></path>
                    </g>
                </g>
            </g>
        </g>
    </g>
</svg>