<?xml version="1.0" encoding="UTF-8"?>
<svg width="16px" height="13px" viewBox="0 0 16 13" version="1.1" xmlns="http://www.w3.org/2000/svg" xmlns:xlink="http://www.w3.org/1999/xlink">
    <!-- Generator: Sketch 55.2 (78181) - https://sketchapp.com -->
    <title>“</title>
    <desc>Created with Sketch.</desc>
    <g id="Page-1" stroke="none" stroke-width="1" fill="none" fill-rule="evenodd">
        <g id="Pains/needs-page-Copy" transform="translate(-568.000000, -2984.000000)" fill="#C20430" fill-rule="nonzero">
            <g id="Testimonial" transform="translate(0.000000, 2913.000000)">
                <g id="Group-2" transform="translate(542.000000, 69.000000)">
                    <path d="M30.5930176,2.03652191 L33.8469238,3.92665863 C32.4751722,6.09594031 31.7653811,8.29709017 31.7175293,10.5301743 L31.7175293,14.5257797 L26.2385254,14.5257797 L26.2385254,10.9369125 C26.2385254,9.43755608 26.6572224,7.83853236 27.4946289,6.1397934 C28.3320354,4.44105443 29.3648213,3.07331095 30.5930176,2.03652191 Z M38.7995605,2.03652191 L42.0534668,3.92665863 C40.6817151,6.09594031 39.9719241,8.29709017 39.9240723,10.5301743 L39.9240723,14.5257797 L34.4450684,14.5257797 L34.4450684,10.9369125 C34.4450684,9.43755608 34.8637653,7.83853236 35.7011719,6.1397934 C36.5385784,4.44105443 37.5713643,3.07331095 38.7995605,2.03652191 Z" id="“"></path>
                </g>
            </g>
        </g>
    </g>
</svg>