<?xml version="1.0" encoding="UTF-8"?>
<svg width="22px" height="21px" viewBox="0 0 22 21" version="1.1" xmlns="http://www.w3.org/2000/svg" xmlns:xlink="http://www.w3.org/1999/xlink">
    <!-- Generator: Sketch 55.2 (78181) - https://sketchapp.com -->
    <title>Mask</title>
    <desc>Created with Sketch.</desc>
    <defs>
        <path d="M72,403 L72,417 L67,417 L67,403 L72,403 Z M72,398.499136 C72,399.888377 71.0348464,401 69.485133,401 L69.4567305,401 C67.9646211,401 67,399.888377 67,398.499136 C67,397.08051 67.994,396 69.5144232,396 C71.0348464,396 71.9711537,397.08051 72,398.499136 Z M89,409.156837 L88.9998038,416.999637 L84.0865774,416.999637 L84.0865774,409.681663 C84.0865774,407.843546 83.3755765,406.589264 81.5968967,406.589264 C80.2394599,406.589264 79.4309245,407.434833 79.0758165,408.251532 C78.9459014,408.544222 78.9140113,408.952027 78.9140113,409.36083 L78.9140113,417 L74,417 C74,417 74.0647613,404.605074 74,403.321559 L78.9140113,403.321559 L78.9140113,405.258996 C79.5661383,404.327636 80.7340991,403 83.3428033,403 C86.5760619,403 89,404.955412 89,409.156837 Z" id="path-1"></path>
    </defs>
    <g id="Page-1" stroke="none" stroke-width="1" fill="none" fill-rule="evenodd">
        <g id="Article" transform="translate(-129.000000, -999.000000)">
            <g id="Info" transform="translate(62.000000, 603.000000)">
                <mask id="mask-2" fill="white">
                    <use xlink:href="#path-1"></use>
                </mask>
                <use id="Mask" fill="#035D67" xlink:href="#path-1"></use>
            </g>
        </g>
    </g>
</svg>