<?xml version="1.0" encoding="UTF-8"?>
<svg width="23px" height="18px" viewBox="0 0 23 18" version="1.1" xmlns="http://www.w3.org/2000/svg" xmlns:xlink="http://www.w3.org/1999/xlink">
    <!-- Generator: Sketch 55.2 (78181) - https://sketchapp.com -->
    <title>Mask</title>
    <desc>Created with Sketch.</desc>
    <defs>
        <path d="M38.1678124,404.788282 L38.2176687,405.566833 L37.3867303,405.4715 C34.3621144,405.106058 31.7197302,403.866732 29.4761965,401.7853 L28.3793578,400.752529 L28.0968387,401.515191 C27.4985631,403.215292 27.8807947,405.010725 29.1272024,406.218273 C29.7919531,406.885602 29.6423842,406.980935 28.4956892,406.583715 C28.0968387,406.456605 27.7478446,406.361272 27.714607,406.408939 C27.5982757,406.52016 27.9971261,407.96604 28.3128827,408.538037 C28.7449707,409.332476 29.6257654,410.111027 30.589654,410.571802 L31.4039736,410.937244 L30.4400851,410.953133 C29.509434,410.953133 29.4761965,410.969022 29.5759091,411.302686 C29.9082845,412.335458 31.2211672,413.431784 32.6836188,413.908448 L33.7139825,414.242113 L32.816569,414.750554 C31.4870675,415.481438 29.9249033,415.894547 28.362739,415.926324 C27.6148944,415.942213 27,416.005768 27,416.053435 C27,416.212323 29.0274898,417.102095 30.2074223,417.451648 C33.74722,418.48442 37.9517684,418.039534 41.1093344,416.275878 C43.3528682,415.020663 45.5964019,412.526123 46.6433843,410.111027 C47.2084225,408.824035 47.7734606,406.472494 47.7734606,405.34439 C47.7734606,404.613505 47.8233169,404.518172 48.7539679,403.644289 C49.3023873,403.135848 49.8175691,402.57974 49.9172817,402.420852 C50.0834694,402.118965 50.0668507,402.118965 49.2192935,402.389074 C47.8066981,402.865738 47.6072729,402.802183 48.3052612,402.087187 C48.820443,401.578746 49.4353375,400.657196 49.4353375,400.387087 C49.4353375,400.33942 49.1860559,400.418864 48.9035369,400.561863 C48.604399,400.720751 47.9396483,400.959083 47.4410852,401.102082 L46.5436717,401.372192 L45.7293521,400.847862 C45.2806453,400.561863 44.6491321,400.244088 44.3167568,400.148755 C43.4691996,399.926312 42.1729356,399.958089 41.4084723,400.21231 C39.3311262,400.927306 38.0182435,402.770405 38.1678124,404.788282 Z" id="path-1"></path>
    </defs>
    <g id="Page-1" stroke="none" stroke-width="1" fill="none" fill-rule="evenodd">
        <g id="Article" transform="translate(-89.000000, -1003.000000)">
            <g id="Info" transform="translate(62.000000, 603.000000)">
                <mask id="mask-2" fill="white">
                    <use xlink:href="#path-1"></use>
                </mask>
                <use id="Mask" fill="#035D67" xlink:href="#path-1"></use>
            </g>
        </g>
    </g>
</svg>