<svg xmlns="http://www.w3.org/2000/svg" viewBox="0 0 452.2 101.57"><defs><style>.cls-1{fill:#c20430}.cls-2{fill:#5b6770}</style></defs><title>enterprise-site-logo-full</title><g id="Layer_2" data-name="Layer 2"><g id="Layer_1-2" data-name="Layer 1"><path class="cls-1" d="M112.61 76.91h17.19l-22.65-22.65-46.19 46.2 28.08-.01 23.56-23.52.01-.02zM98.27 35.13l-65.4 65.34H0L100.47 0l35.14 35.11H98.32l-.05.02z"/><path class="cls-2" d="M268.63 100.43a1.67 1.67 0 0 1-1.64-1L256.5 80h-8.74a.55.55 0 0 0-.61.62v18.79a1 1 0 0 1-1 1h-9.46a1 1 0 0 1-1-1V47.82a1 1 0 0 1 1-1h23.21c11.51 0 19 6.89 19 16.75a15.47 15.47 0 0 1-10.48 15L280 99.1a.82.82 0 0 1-.73 1.33zm-1.34-36.89c0-4.12-2.87-6.48-7.91-6.48h-11.62a.55.55 0 0 0-.61.62V69.2a.54.54 0 0 0 .61.61h11.62c5 0 7.91-2.47 7.91-6.27m52.49 36.89a1.66 1.66 0 0 1-1.64-1L307.66 80h-8.74a.55.55 0 0 0-.62.62v18.79a1 1 0 0 1-1 1h-9.45a1 1 0 0 1-1-1V47.82a1 1 0 0 1 1-1h23.23c11.51 0 19 6.89 19 16.75a15.47 15.47 0 0 1-10.48 15l11.59 20.53a.82.82 0 0 1-.72 1.33zm-1.34-36.89c0-4.12-2.87-6.48-7.91-6.48h-11.61a.55.55 0 0 0-.62.62V69.2a.55.55 0 0 0 .62.61h11.61c5 0 7.91-2.47 7.91-6.27m18.7 23.74c-1.12-3.5-1.54-7.6-1.54-13.67s.4-10.17 1.54-13.61c3-9.15 10.48-14.29 21.07-14.29s18 5.14 21 14.29c1 3.49 1.55 7.6 1.55 13.66s-.52 10.17-1.55 13.67c-3 9.14-10.47 14.29-21 14.29s-18.09-5.15-21.07-14.29m30.93-2.67c.83-2.47 1-5.25 1-11s-.2-8.43-1-10.89c-1.53-4.73-5.44-6.79-9.86-6.79s-8.33 2.06-10 6.79c-.82 2.46-1 5.24-1 10.89s.21 8.53 1 11c1.64 4.62 5.45 6.68 10 6.68s8.33-2.06 9.86-6.68m61.25 15.77a1.28 1.28 0 0 1-1.23-1L417.5 66.11h-.21l-10.48 33.3a1.3 1.3 0 0 1-1.23 1h-7.2a1.29 1.29 0 0 1-1.23-1l-14.39-51.59c-.2-.62.11-1 .83-1h8.94a1.23 1.23 0 0 1 1.33 1l8.64 32.37h.2l10.18-32.37a1.31 1.31 0 0 1 1.23-1h6.78a1.31 1.31 0 0 1 1.24 1l10.38 32.37h.2L441 47.82a1.21 1.21 0 0 1 1.24-1h9c.72 0 1 .41.82 1l-14.31 51.59a1.31 1.31 0 0 1-1.24 1zM162 57.06a.55.55 0 0 0-.62.62v10.59a.55.55 0 0 0 .62.62h18.9a1 1 0 0 1 1 1 .86.86 0 0 1-.07.36l-3.2 8.16a1 1 0 0 1-.94.69H162a.55.55 0 0 0-.62.62v19.69a1 1 0 0 1-1 1h-9.45a1 1 0 0 1-1-1V47.82a1 1 0 0 1 1-1H188a1 1 0 0 1 1 1 1.15 1.15 0 0 1-.06.37l-3.23 8.24a1 1 0 0 1-.95.69H162zm32.88 33.27l-3.38 9.06a1.31 1.31 0 0 1-1.44 1h-9.25c-.72 0-1-.4-.82-1l19.83-51.58a1.34 1.34 0 0 1 1.34-1h9.05a1.29 1.29 0 0 1 1.22 1L231 99.39c.21.62-.1 1-.82 1h-9.25a1.31 1.31 0 0 1-1.44-1l-3.39-9h-21.22zm3.69-9.84h13.9l-6.79-18.29h-.31l-6.82 18.28z"/></g></g></svg>