<svg width="22" height="21" viewBox="0 0 22 21" xmlns="http://www.w3.org/2000/svg" xmlns:xlink="http://www.w3.org/1999/xlink"><title>Mask</title><defs><path d="M72 403v14h-5v-14h5zm0-4.5c0 1.388-.965 2.5-2.515 2.5h-.028c-1.492 0-2.457-1.112-2.457-2.5 0-1.42.994-2.5 2.514-2.5 1.52 0 2.457 1.08 2.486 2.5zm17 10.657V417h-4.913v-7.318c0-1.838-.711-3.093-2.49-3.093-1.358 0-2.166.846-2.521 1.663-.13.292-.162.7-.162 1.109V417H74s.065-12.395 0-13.678h4.914v1.937c.652-.931 1.82-2.259 4.429-2.259 3.233 0 5.657 1.955 5.657 6.157z" id="a"/></defs><use fill="#035D67" xlink:href="#a" transform="translate(-67 -396)" fill-rule="evenodd"/></svg>