<svg width="18" height="18" viewBox="0 0 18 18" xmlns="http://www.w3.org/2000/svg" xmlns:xlink="http://www.w3.org/1999/xlink"><title>Group 3</title><defs><path id="a" d="M0 0h18v18H0z"/></defs><g fill="none" fill-rule="evenodd"><mask id="b" fill="#fff"><use xlink:href="#a"/></mask><path d="M7.625 12.486c-2.563 0-4.641-2.105-4.641-4.701 0-2.597 2.078-4.701 4.641-4.701 2.56 0 4.636 2.098 4.642 4.69.006 2.592-2.06 4.7-4.62 4.712h-.022zm9.985 2.224l-3.221-3.272a7.716 7.716 0 0 0 .91-3.69c0-4.316-3.483-7.807-7.758-7.747C3.42.059.058 3.465 0 7.638c-.06 4.33 3.388 7.858 7.649 7.858a7.492 7.492 0 0 0 3.922-1.107l3.174 3.215c.52.527 1.365.528 1.886.002l.975-.983a1.365 1.365 0 0 0 .003-1.913z" fill="#C20430" mask="url(#b)"/></g></svg>