<svg xmlns="http://www.w3.org/2000/svg" viewBox="0 0 512 512"><title>Asset 3</title><g id="Layer_2" data-name="Layer 2"><g id="Layer_1-2" data-name="Layer 1"><path d="M480,160V77.25a32,32,0,0,0-9.38-22.63L425.37,9.37A32,32,0,0,0,402.75,0H160a32,32,0,0,0-32,32V480a32,32,0,0,0,32,32H480a32,32,0,0,0,32-32V192A32,32,0,0,0,480,160ZM288,432a16,16,0,0,1-16,16H240a16,16,0,0,1-16-16V400a16,16,0,0,1,16-16h32a16,16,0,0,1,16,16Zm0-128a16,16,0,0,1-16,16H240a16,16,0,0,1-16-16V272a16,16,0,0,1,16-16h32a16,16,0,0,1,16,16ZM416,432a16,16,0,0,1-16,16H368a16,16,0,0,1-16-16V400a16,16,0,0,1,16-16h32a16,16,0,0,1,16,16Zm0-128a16,16,0,0,1-16,16H368a16,16,0,0,1-16-16V272a16,16,0,0,1,16-16h32a16,16,0,0,1,16,16Zm0-112H192V64H352v48a16,16,0,0,0,16,16h48ZM64,128H32A32,32,0,0,0,0,160V480a32,32,0,0,0,32,32H64a32,32,0,0,0,32-32V160A32,32,0,0,0,64,128Z"/></g></g></svg>