<svg xmlns="http://www.w3.org/2000/svg" viewBox="0 0 448 392"><defs><style>.cls-1{fill:#fff}</style></defs><title>enterprise-site-icon-menu-white</title><g id="Layer_2" data-name="Layer 2"><path class="cls-1" d="M16 72h416a16 16 0 0 0 16-16V16a16 16 0 0 0-16-16H16A16 16 0 0 0 0 16v40a16 16 0 0 0 16 16zm0 160h416a16 16 0 0 0 16-16v-40a16 16 0 0 0-16-16H16a16 16 0 0 0-16 16v40a16 16 0 0 0 16 16zm0 160h416a16 16 0 0 0 16-16v-40a16 16 0 0 0-16-16H16a16 16 0 0 0-16 16v40a16 16 0 0 0 16 16z" id="Layer_1-2" data-name="Layer 1"/></g></svg>