<svg width="15" height="18" viewBox="0 0 15 18" xmlns="http://www.w3.org/2000/svg" xmlns:xlink="http://www.w3.org/1999/xlink"><title>Group 3</title><defs><path id="a" d="M0 0h15v18H0z"/></defs><g fill="none" fill-rule="evenodd"><mask id="b" fill="#fff"><use xlink:href="#a"/></mask><path d="M7.5 10.844c-2.052 0-3.722-1.614-3.722-3.596 0-1.984 1.67-3.597 3.722-3.597s3.721 1.613 3.721 3.597c0 1.982-1.669 3.596-3.721 3.596M7.5 0C3.365 0 0 3.251 0 7.248a7.12 7.12 0 0 0 1.618 4.492l4.699 5.708a1.545 1.545 0 0 0 2.366 0l4.702-5.712A7.114 7.114 0 0 0 15 7.247C15 3.251 11.636 0 7.5 0" fill="#FEFEFE" mask="url(#b)"/></g></svg>