<svg width="16" height="20" viewBox="0 0 16 20" xmlns="http://www.w3.org/2000/svg"><title>Group 5</title><g fill="#FEFEFE" fill-rule="evenodd"><path d="M9.243 12.227c0-.345-.092-.62-.276-.823-.185-.204-.498-.393-.94-.565a10.974 10.974 0 0 1-1.142-.514 3.643 3.643 0 0 1-.824-.587 2.366 2.366 0 0 1-.535-.779c-.128-.299-.191-.654-.191-1.066 0-.71.218-1.294.656-1.748.438-.454 1.02-.72 1.745-.795V4h.973v1.369c.717.105 1.278.415 1.683.93.405.516.608 1.183.608 2.004H9.243c0-.505-.1-.882-.3-1.133a.978.978 0 0 0-.806-.375c-.332 0-.59.098-.772.293-.183.196-.274.466-.274.81 0 .32.09.578.268.77.178.194.51.392.994.594.484.202.882.392 1.194.57.312.18.576.381.79.606.215.226.38.482.493.77.113.289.17.624.17 1.006 0 .716-.215 1.296-.644 1.742-.43.445-1.021.708-1.775.788V16h-.967v-1.25c-.83-.092-1.474-.398-1.93-.917-.456-.52-.684-1.21-.684-2.073h1.757c0 .5.115.884.343 1.151.23.268.559.401.988.401.357 0 .639-.098.845-.293.207-.196.31-.46.31-.792"/><path d="M0 20h16V0H0v20zm2-2h12V2H2v16z"/></g></svg>