<svg xmlns="http://www.w3.org/2000/svg" viewBox="0 0 352 352"><defs><style>.cls-1{fill:#fff}</style></defs><title>enterprise-site-icon-close-white</title><g id="Layer_2" data-name="Layer 2"><g id="Layer_1-2" data-name="Layer 1"><path class="cls-1" d="M242.72 176L342.79 75.93a31.46 31.46 0 0 0 0-44.48L320.55 9.21a31.46 31.46 0 0 0-44.48 0L176 109.28 75.93 9.21a31.46 31.46 0 0 0-44.48 0L9.21 31.45a31.46 31.46 0 0 0 0 44.48L109.28 176 9.21 276.07a31.46 31.46 0 0 0 0 44.48l22.24 22.24a31.46 31.46 0 0 0 44.48 0L176 242.72l100.07 100.07a31.46 31.46 0 0 0 44.48 0l22.24-22.24a31.46 31.46 0 0 0 0-44.48z" id="Layer_1-2-2" data-name="Layer 1-2"/></g></g></svg>