<svg width="18" height="19" viewBox="0 0 18 19" xmlns="http://www.w3.org/2000/svg"><title>Path</title><path d="M7.625 12.65c-2.563 0-4.641-2.105-4.641-4.701 0-2.596 2.078-4.701 4.641-4.701 2.56 0 4.636 2.098 4.642 4.69.006 2.592-2.06 4.7-4.62 4.712h-.022zm6.764-1.048a7.716 7.716 0 0 0 .91-3.69c0-4.316-3.483-7.807-7.758-7.747C3.42.223.058 3.629 0 7.802c-.06 4.33 3.388 7.858 7.649 7.858a7.492 7.492 0 0 0 3.922-1.107l3.174 3.215c.52.527 1.365.528 1.886.002l.975-.983a1.365 1.365 0 0 0 .003-1.913l-3.221-3.272z" fill="#FFF" fill-rule="evenodd"/></svg>