<svg xmlns="http://www.w3.org/2000/svg" viewBox="0 0 25 21.87"><defs><style>.cls-1,.cls-2{fill:none;stroke:#fff;stroke-linejoin:round}.cls-2{stroke-linecap:round}</style></defs><title>enterprise-site-icon-events-webinars-white</title><g id="Layer_2" data-name="Layer 2"><g id="Layer_1-2" data-name="Layer 1"><g id="Whitepaper"><path class="cls-1" d="M14.85 11.5a.43.43 0 0 1-.43.43h-6A.42.42 0 0 1 8 11.5V8.09a.42.42 0 0 1 .42-.43h6a.43.43 0 0 1 .43.43z"/><path class="cls-2" d="M9.29 8.94h4.28"/><circle class="cls-2" cx="9.29" cy="5.1" r="1.71"/><circle class="cls-2" cx="12.93" cy="5.74" r="1.07"/><path class="cls-2" d="M14.85 10.43l2.17.91a.26.26 0 0 0 .39-.26V8.51a.26.26 0 0 0-.41-.26l-2.17.91"/></g><g id="Colour"><path class="cls-2" d="M24.5 17.62a1.61 1.61 0 0 1-1.56 1.66H2.06A1.61 1.61 0 0 1 .5 17.62V2.16A1.61 1.61 0 0 1 2.06.5h20.88a1.61 1.61 0 0 1 1.56 1.66zM5.19 21.37h14.62m-7.31-2.08v2.08"/><circle class="cls-1" cx="12.5" cy="17.19" r=".52"/><path class="cls-1" d="M.5 15.11h24"/></g></g></g></svg>