<svg xmlns="http://www.w3.org/2000/svg" viewBox="0 0 512 384"><title>Asset 2</title><g data-name="Layer 2"><path d="M502.3 126.8a6 6 0 0 1 9.7 4.7V336a48 48 0 0 1-48 48H48a48 48 0 0 1-48-48V131.6a6 6 0 0 1 9.7-4.7c22.4 17.4 52.1 39.5 154.1 113.6 21.1 15.4 56.7 47.8 92.2 47.6 35.7.3 72-32.8 92.3-47.6 102-74.1 131.6-96.3 154-113.7zM256 256c23.2.4 56.6-29.2 73.4-41.4 132.7-96.3 142.8-104.7 173.4-128.7A23.93 23.93 0 0 0 512 67V48a48 48 0 0 0-48-48H48A48 48 0 0 0 0 48v19a24.08 24.08 0 0 0 9.2 18.9c30.6 23.9 40.7 32.4 173.4 128.7 16.8 12.2 50.2 41.8 73.4 41.4z" data-name="Layer 1"/></g></svg>