<svg width="23" height="18" viewBox="0 0 23 18" xmlns="http://www.w3.org/2000/svg" xmlns:xlink="http://www.w3.org/1999/xlink"><title>Mask</title><defs><path d="M38.168 404.788l.05.779-.831-.096c-3.025-.365-5.667-1.604-7.91-3.686l-1.098-1.032-.282.762c-.598 1.7-.216 3.496 1.03 4.703.665.668.515.763-.631.366-.4-.127-.748-.223-.781-.175-.117.111.282 1.557.598 2.129.432.794 1.313 1.573 2.277 2.034l.814.365-.964.016c-.93 0-.964.016-.864.35.332 1.032 1.645 2.129 3.108 2.605l1.03.334-.897.509a9.756 9.756 0 0 1-4.454 1.175c-.748.016-1.363.08-1.363.127 0 .16 2.027 1.05 3.207 1.399 3.54 1.032 7.745.588 10.902-1.176 2.244-1.255 4.487-3.75 5.534-6.165.565-1.287 1.13-3.639 1.13-4.767 0-.73.05-.826.981-1.7.548-.508 1.064-1.064 1.163-1.223.166-.302.15-.302-.698-.032-1.412.477-1.612.413-.914-.302.515-.508 1.13-1.43 1.13-1.7 0-.048-.249.032-.531.175-.3.159-.964.397-1.463.54l-.897.27-.815-.524c-.448-.286-1.08-.604-1.412-.7-.848-.222-2.144-.19-2.909.064-2.077.715-3.39 2.558-3.24 4.576z" id="a"/></defs><use fill="#035D67" xlink:href="#a" transform="translate(-27 -400)" fill-rule="evenodd"/></svg>